<mxfile host="Electron" modified="2023-08-24T03:09:05.605Z" agent="Mozilla/5.0 (Windows NT 10.0; Win64; x64) AppleWebKit/537.36 (KHTML, like Gecko) draw.io/21.6.8 Chrome/114.0.5735.289 Electron/25.5.0 Safari/537.36" etag="rRngXgjqBDlyPL2U0VG0" version="21.6.8" type="device">
  <diagram id="C5RBs43oDa-KdzZeNtuy" name="Page-1">
    <mxGraphModel dx="1418" dy="828" grid="1" gridSize="10" guides="1" tooltips="1" connect="1" arrows="1" fold="1" page="1" pageScale="1" pageWidth="827" pageHeight="1169" math="0" shadow="0">
      <root>
        <mxCell id="WIyWlLk6GJQsqaUBKTNV-0" />
        <mxCell id="WIyWlLk6GJQsqaUBKTNV-1" parent="WIyWlLk6GJQsqaUBKTNV-0" />
        <mxCell id="L0U74yUhOZ7fYqzLN5ZQ-0" value="" style="group" parent="WIyWlLk6GJQsqaUBKTNV-1" vertex="1" connectable="0">
          <mxGeometry x="150" y="100" width="590" height="590" as="geometry" />
        </mxCell>
        <mxCell id="L0U74yUhOZ7fYqzLN5ZQ-1" value="Start" style="strokeWidth=2;html=1;shape=mxgraph.flowchart.terminator;whiteSpace=wrap;" parent="L0U74yUhOZ7fYqzLN5ZQ-0" vertex="1">
          <mxGeometry x="164.38" width="120" height="50" as="geometry" />
        </mxCell>
        <mxCell id="L0U74yUhOZ7fYqzLN5ZQ-4" value="" style="group" parent="L0U74yUhOZ7fYqzLN5ZQ-0" vertex="1" connectable="0">
          <mxGeometry x="150" y="100" width="185" height="480" as="geometry" />
        </mxCell>
        <mxCell id="L0U74yUhOZ7fYqzLN5ZQ-5" value="Input Bilangan Integer(n)" style="shape=parallelogram;whiteSpace=wrap;html=1;backgroundOutline=1;" parent="L0U74yUhOZ7fYqzLN5ZQ-4" vertex="1">
          <mxGeometry x="-20" width="188.75" height="60" as="geometry" />
        </mxCell>
        <mxCell id="L0U74yUhOZ7fYqzLN5ZQ-6" value="Bilangan Input(n)%7 ==0" style="rhombus;whiteSpace=wrap;html=1;" parent="L0U74yUhOZ7fYqzLN5ZQ-4" vertex="1">
          <mxGeometry x="-18" y="110" width="185" height="100" as="geometry" />
        </mxCell>
        <mxCell id="L0U74yUhOZ7fYqzLN5ZQ-7" value="" style="edgeStyle=orthogonalEdgeStyle;rounded=0;orthogonalLoop=1;jettySize=auto;html=1;" parent="L0U74yUhOZ7fYqzLN5ZQ-4" source="L0U74yUhOZ7fYqzLN5ZQ-5" target="L0U74yUhOZ7fYqzLN5ZQ-6" edge="1">
          <mxGeometry relative="1" as="geometry" />
        </mxCell>
        <mxCell id="L0U74yUhOZ7fYqzLN5ZQ-10" value="Ya" style="text;html=1;strokeColor=none;fillColor=none;align=center;verticalAlign=middle;whiteSpace=wrap;rounded=0;" parent="L0U74yUhOZ7fYqzLN5ZQ-4" vertex="1">
          <mxGeometry x="-60" y="120" width="60" height="30" as="geometry" />
        </mxCell>
        <mxCell id="L0U74yUhOZ7fYqzLN5ZQ-17" value="&lt;h1&gt;&lt;span style=&quot;font-size: 18px;&quot;&gt;Decision&lt;/span&gt;&lt;/h1&gt;&lt;p&gt;&lt;/p&gt;Pengambilan keputusan apaakah&amp;nbsp;&lt;span style=&quot;background-color: initial;&quot;&gt;input Bilangan n jika di lakukan proses mod dengan angka 7 apakah = 0&lt;/span&gt;" style="text;html=1;strokeColor=none;fillColor=none;spacing=5;spacingTop=-20;whiteSpace=wrap;overflow=hidden;rounded=0;" parent="L0U74yUhOZ7fYqzLN5ZQ-4" vertex="1">
          <mxGeometry x="-21.25" y="190" width="190" height="140" as="geometry" />
        </mxCell>
        <mxCell id="L0U74yUhOZ7fYqzLN5ZQ-13" value="" style="edgeStyle=orthogonalEdgeStyle;rounded=0;orthogonalLoop=1;jettySize=auto;html=1;" parent="L0U74yUhOZ7fYqzLN5ZQ-0" source="L0U74yUhOZ7fYqzLN5ZQ-1" target="L0U74yUhOZ7fYqzLN5ZQ-5" edge="1">
          <mxGeometry relative="1" as="geometry" />
        </mxCell>
        <mxCell id="L0U74yUhOZ7fYqzLN5ZQ-15" value="Tidak" style="text;html=1;strokeColor=none;fillColor=none;align=center;verticalAlign=middle;whiteSpace=wrap;rounded=0;" parent="L0U74yUhOZ7fYqzLN5ZQ-0" vertex="1">
          <mxGeometry x="310" y="230" width="60" height="30" as="geometry" />
        </mxCell>
        <mxCell id="L0U74yUhOZ7fYqzLN5ZQ-16" value="&lt;h1&gt;&lt;font style=&quot;font-size: 18px;&quot;&gt;Input&lt;/font&gt;&lt;/h1&gt;&lt;p&gt;input Bilangan Integer dengan nama variabel n&lt;/p&gt;" style="text;html=1;strokeColor=none;fillColor=none;spacing=5;spacingTop=-20;whiteSpace=wrap;overflow=hidden;rounded=0;" parent="L0U74yUhOZ7fYqzLN5ZQ-0" vertex="1">
          <mxGeometry x="318" y="90" width="170" height="80" as="geometry" />
        </mxCell>
        <mxCell id="L0U74yUhOZ7fYqzLN5ZQ-2" value="Print(Output) Bilangan input(n) &lt;br&gt;adalah bilangan Kelipatan 7" style="strokeWidth=2;html=1;shape=parallelogram;whiteSpace=wrap;" parent="WIyWlLk6GJQsqaUBKTNV-1" vertex="1">
          <mxGeometry x="74.38" y="560" width="219" height="90" as="geometry" />
        </mxCell>
        <mxCell id="L0U74yUhOZ7fYqzLN5ZQ-3" value="Print(Output) Bilangan input(n) &lt;br&gt;adalah Bukan Kelipatan 7" style="strokeWidth=2;html=1;shape=parallelogram;whiteSpace=wrap;" parent="WIyWlLk6GJQsqaUBKTNV-1" vertex="1">
          <mxGeometry x="452.38" y="560" width="222" height="90" as="geometry" />
        </mxCell>
        <mxCell id="L0U74yUhOZ7fYqzLN5ZQ-8" value="End" style="strokeWidth=2;html=1;shape=mxgraph.flowchart.terminator;whiteSpace=wrap;" parent="WIyWlLk6GJQsqaUBKTNV-1" vertex="1">
          <mxGeometry x="316.88" y="730" width="120" height="50" as="geometry" />
        </mxCell>
        <mxCell id="L0U74yUhOZ7fYqzLN5ZQ-9" style="edgeStyle=orthogonalEdgeStyle;rounded=0;orthogonalLoop=1;jettySize=auto;html=1;" parent="WIyWlLk6GJQsqaUBKTNV-1" source="L0U74yUhOZ7fYqzLN5ZQ-3" edge="1">
          <mxGeometry relative="1" as="geometry">
            <mxPoint x="376.88" y="720" as="targetPoint" />
          </mxGeometry>
        </mxCell>
        <mxCell id="L0U74yUhOZ7fYqzLN5ZQ-14" style="edgeStyle=orthogonalEdgeStyle;rounded=0;orthogonalLoop=1;jettySize=auto;html=1;entryX=0.492;entryY=-0.12;entryDx=0;entryDy=0;entryPerimeter=0;" parent="WIyWlLk6GJQsqaUBKTNV-1" source="L0U74yUhOZ7fYqzLN5ZQ-2" target="L0U74yUhOZ7fYqzLN5ZQ-8" edge="1">
          <mxGeometry relative="1" as="geometry" />
        </mxCell>
        <mxCell id="L0U74yUhOZ7fYqzLN5ZQ-18" value="&lt;h1&gt;&lt;font style=&quot;font-size: 18px;&quot;&gt;Output&lt;/font&gt;&lt;/h1&gt;&lt;p&gt;menampilkan display Output dari hasil pengambilan keputusan bernilai benar&lt;/p&gt;" style="text;html=1;strokeColor=none;fillColor=none;spacing=5;spacingTop=-20;whiteSpace=wrap;overflow=hidden;rounded=0;" parent="WIyWlLk6GJQsqaUBKTNV-1" vertex="1">
          <mxGeometry x="128.88" y="645" width="170" height="105" as="geometry" />
        </mxCell>
        <mxCell id="L0U74yUhOZ7fYqzLN5ZQ-19" value="&lt;h1&gt;&lt;font style=&quot;font-size: 18px;&quot;&gt;Output&lt;/font&gt;&lt;/h1&gt;&lt;p&gt;menampilkan display Output dari hasil pengambilan keputusan bernilai salah&lt;/p&gt;" style="text;html=1;strokeColor=none;fillColor=none;spacing=5;spacingTop=-20;whiteSpace=wrap;overflow=hidden;rounded=0;" parent="WIyWlLk6GJQsqaUBKTNV-1" vertex="1">
          <mxGeometry x="494.38" y="645" width="170" height="105" as="geometry" />
        </mxCell>
        <mxCell id="L0U74yUhOZ7fYqzLN5ZQ-11" style="edgeStyle=orthogonalEdgeStyle;rounded=0;orthogonalLoop=1;jettySize=auto;html=1;entryX=0.5;entryY=0;entryDx=0;entryDy=0;entryPerimeter=0;exitX=0;exitY=0.5;exitDx=0;exitDy=0;" parent="WIyWlLk6GJQsqaUBKTNV-1" source="L0U74yUhOZ7fYqzLN5ZQ-6" target="L0U74yUhOZ7fYqzLN5ZQ-2" edge="1">
          <mxGeometry relative="1" as="geometry" />
        </mxCell>
        <mxCell id="L0U74yUhOZ7fYqzLN5ZQ-12" style="edgeStyle=orthogonalEdgeStyle;rounded=0;orthogonalLoop=1;jettySize=auto;html=1;entryX=0.5;entryY=0;entryDx=0;entryDy=0;entryPerimeter=0;exitX=1;exitY=0.5;exitDx=0;exitDy=0;" parent="WIyWlLk6GJQsqaUBKTNV-1" source="L0U74yUhOZ7fYqzLN5ZQ-6" target="L0U74yUhOZ7fYqzLN5ZQ-3" edge="1">
          <mxGeometry relative="1" as="geometry" />
        </mxCell>
      </root>
    </mxGraphModel>
  </diagram>
</mxfile>
